<svg id="Group_664" data-name="Group 664" xmlns="http://www.w3.org/2000/svg" width="12.755" height="12.755" viewBox="0 0 12.755 12.755">
  <path id="Path_605" data-name="Path 605" d="M6,42h9.566" transform="translate(-4.406 -30.839)" fill="none" stroke="#fff" stroke-linecap="round" stroke-linejoin="round" stroke-width="1.5"/>
  <path id="Path_606" data-name="Path 606" d="M18,16h.531" transform="translate(-13.217 -11.748)" fill="none" stroke="#fff" stroke-linecap="round" stroke-linejoin="round" stroke-width="1.5"/>
  <path id="Path_607" data-name="Path 607" d="M18,24h.531" transform="translate(-13.217 -17.622)" fill="none" stroke="#fff" stroke-linecap="round" stroke-linejoin="round" stroke-width="1.5"/>
  <path id="Path_608" data-name="Path 608" d="M18,32h.531" transform="translate(-13.217 -23.496)" fill="none" stroke="#fff" stroke-linecap="round" stroke-linejoin="round" stroke-width="1.5"/>
  <path id="Path_609" data-name="Path 609" d="M28,16h.531" transform="translate(-20.559 -11.748)" fill="none" stroke="#fff" stroke-linecap="round" stroke-linejoin="round" stroke-width="1.5"/>
  <path id="Path_610" data-name="Path 610" d="M28,24h.531" transform="translate(-20.559 -17.622)" fill="none" stroke="#fff" stroke-linecap="round" stroke-linejoin="round" stroke-width="1.5"/>
  <path id="Path_611" data-name="Path 611" d="M28,32h.531" transform="translate(-20.559 -23.496)" fill="none" stroke="#fff" stroke-linecap="round" stroke-linejoin="round" stroke-width="1.5"/>
  <path id="Path_612" data-name="Path 612" d="M10,15.566v-8.5A1.063,1.063,0,0,1,11.063,6h5.315a1.063,1.063,0,0,1,1.063,1.063v8.5" transform="translate(-7.343 -4.406)" fill="none" stroke="#fff" stroke-linecap="round" stroke-linejoin="round" stroke-width="1.5"/>
  <path id="Path_613" data-name="Path 613" d="M0,0H12.755V12.755H0Z" fill="none"/>
</svg>
