<svg id="Layer_1" data-name="Layer 1" xmlns="http://www.w3.org/2000/svg" width="164.902" height="32.223" viewBox="0 0 164.902 32.223">
  <g id="Group_944" data-name="Group 944">
    <g id="Group_941" data-name="Group 941" transform="translate(157.713 19.742)">
      <path id="Path_995" data-name="Path 995" d="M679.842,85.45h-.769v2.441a.432.432,0,0,1-.433.433h-.054a.432.432,0,0,1-.433-.433V85.45h-.769a.344.344,0,0,1-.345-.345h0a.344.344,0,0,1,.345-.345h2.455a.344.344,0,0,1,.345.345h0a.344.344,0,0,1-.345.345Z" transform="translate(-677.04 -84.758)" fill="#ef3f24"/>
      <path id="Path_996" data-name="Path 996" d="M695.165,88.316h-.049a.432.432,0,0,1-.433-.433V85.931l-.536,1.256a.479.479,0,0,1-.443.291h0a.481.481,0,0,1-.443-.291l-.536-1.256v1.952a.432.432,0,0,1-.433.433h0a.432.432,0,0,1-.433-.433V85.4a.646.646,0,0,1,.648-.648h0a.647.647,0,0,1,.592.382l.629,1.4.629-1.4a.649.649,0,0,1,.592-.384h0a.646.646,0,0,1,.648.648v2.483a.432.432,0,0,1-.433.433Z" transform="translate(-688.408 -84.75)" fill="#ef3f24"/>
    </g>
    <g id="Group_943" data-name="Group 943">
      <path id="Path_997" data-name="Path 997" d="M302.7,46.65a10.66,10.66,0,1,0,10.66,10.66A10.657,10.657,0,0,0,302.7,46.65Zm0,14.615a3.955,3.955,0,1,1,3.955-3.955A3.955,3.955,0,0,1,302.7,61.265Z" transform="translate(-224.011 -35.783)" fill="#ef3f24"/>
      <g id="Group_942" data-name="Group 942" transform="translate(26.178)">
        <path id="Path_998" data-name="Path 998" d="M410.963,64.62l5.43-14.741a1.427,1.427,0,0,0-1.339-1.919h-4.9a1.426,1.426,0,0,0-1.351.969l-4.07,12.006-4.07-12.006a1.426,1.426,0,0,0-1.351-.969h-4.92a1.426,1.426,0,0,0-1.342,1.91l5.3,14.706a6.711,6.711,0,0,0,6.315,4.435h0a6.714,6.714,0,0,0,6.3-4.391Z" transform="translate(-327.602 -36.788)" fill="#ef3f24"/>
        <path id="Path_999" data-name="Path 999" d="M118.425,66.525h-4.619A1.426,1.426,0,0,1,112.38,65.1V55.027A11.388,11.388,0,0,1,113.461,50a8.339,8.339,0,0,1,3.28-3.571,11.767,11.767,0,0,1,8.456-.948,1.442,1.442,0,0,1,1.093,1.393v4.056a1.416,1.416,0,0,1-1.719,1.393c-2.339-.552-4.715.254-4.715,2.949V65.1a1.426,1.426,0,0,1-1.426,1.426Z" transform="translate(-112.38 -34.603)" fill="#ef3f24"/>
        <circle id="Ellipse_56" data-name="Ellipse 56" cx="4.484" cy="4.484" r="4.484" transform="translate(91.654)" fill="#ef3f24"/>
      </g>
      <path id="Path_1000" data-name="Path 1000" d="M10.66,46.65a10.66,10.66,0,1,0,0,21.319h10.66V57.864c.009-.182.009-.373.009-.554A10.665,10.665,0,0,0,10.66,46.65Zm0,14.615a3.955,3.955,0,1,1,3.955-3.955A3.947,3.947,0,0,1,10.66,61.265Z" transform="translate(0 -35.783)" fill="#ef3f24"/>
      <path id="Path_1001" data-name="Path 1001" d="M571.14,46.65a10.66,10.66,0,1,0,0,21.319H581.8V57.864c.009-.182.009-.373.009-.554A10.665,10.665,0,0,0,571.14,46.65Zm0,14.615a3.955,3.955,0,1,1,3.955-3.955A3.947,3.947,0,0,1,571.14,61.265Z" transform="translate(-429.919 -35.783)" fill="#ef3f24"/>
      <path id="Path_1002" data-name="Path 1002" d="M193.99,46.65a10.66,10.66,0,1,0,10.66,10.66A10.657,10.657,0,0,0,193.99,46.65Zm0,14.615a3.955,3.955,0,1,1,3.955-3.955A3.955,3.955,0,0,1,193.99,61.265Z" transform="translate(-140.624 -35.783)" fill="#ef3f24"/>
    </g>
    <rect id="Rectangle_234" data-name="Rectangle 234" width="7.473" height="20.755" rx="3.736" transform="translate(118.583 11.167)" fill="#ef3f24"/>
  </g>
</svg>
